<svg width="60" height="61" viewBox="0 0 60 61" fill="none" xmlns="http://www.w3.org/2000/svg">
<g clip-path="url(#clip0_4_10689)">
<g clip-path="url(#clip1_4_10689)">
<g clip-path="url(#clip2_4_10689)">
<mask id="mask0_4_10689" style="mask-type:luminance" maskUnits="userSpaceOnUse" x="0" y="0" width="60" height="61">
<path d="M60 0.469971H0V60.47H60V0.469971Z" fill="white"/>
</mask>
<g mask="url(#mask0_4_10689)">
<path d="M8.75573 37.2176L35.3054 10.6678C37.136 8.83726 40.104 8.83726 41.9346 10.6678L36.8955 5.62879C35.0649 3.79822 32.097 3.79822 30.2664 5.62879L3.71669 32.1785C1.88611 34.0091 1.88611 36.9771 3.71669 38.8076L8.75573 43.8466C6.92515 42.016 6.92515 39.0481 8.75573 37.2176Z" fill="#EEF1FB"/>
<path d="M50.1537 18.887C51.9843 20.7176 51.9843 23.6856 50.1537 25.5162L23.6039 52.0658C21.7734 53.8964 18.8054 53.8964 16.9748 52.0658L3.71669 38.8077C1.88611 36.9771 1.88611 34.009 3.71669 32.1784L30.2664 5.62879C32.097 3.79821 35.0649 3.79821 36.8955 5.62879L43.5247 12.258L52.9689 2.81372" stroke="#405FF2" stroke-width="3" stroke-miterlimit="10" stroke-linecap="round" stroke-linejoin="round"/>
<path d="M18.9633 31.5158C18.7631 32.9254 19.2051 34.4088 20.2894 35.4931C22.12 37.3237 25.088 37.3237 26.9186 35.4931C28.7492 33.6626 28.7492 30.6946 26.9186 28.864C25.088 27.0334 25.088 24.0654 26.9186 22.2348C28.7492 20.4042 31.7172 20.4042 33.5478 22.2348C34.6321 23.3191 35.0741 24.8025 34.8739 26.2121" stroke="#405FF2" stroke-width="3" stroke-miterlimit="10" stroke-linecap="round" stroke-linejoin="round"/>
<path d="M16.9749 38.8078L20.2894 35.4932" stroke="#405FF2" stroke-width="3" stroke-miterlimit="10" stroke-linecap="round" stroke-linejoin="round"/>
<path d="M33.5476 22.2348L36.8621 18.9202" stroke="#405FF2" stroke-width="3" stroke-miterlimit="10" stroke-linecap="round" stroke-linejoin="round"/>
<path d="M43.5938 58.126L57.6562 44.0635" stroke="#FF5CF4" stroke-width="3" stroke-miterlimit="10" stroke-linecap="round" stroke-linejoin="round"/>
</g>
</g>
</g>
</g>
<defs>
<clipPath id="clip0_4_10689">
<rect width="60" height="60" fill="white" transform="translate(0 0.469971)"/>
</clipPath>
<clipPath id="clip1_4_10689">
<rect width="60" height="60" fill="white" transform="translate(0 0.469971)"/>
</clipPath>
<clipPath id="clip2_4_10689">
<rect width="60" height="60" fill="white" transform="translate(0 0.469971)"/>
</clipPath>
</defs>
</svg>
