<svg xmlns="http://www.w3.org/2000/svg" version="1.1" viewBox="-5.0 -10.0 110.0 135.0">
    <path
        d="m69.301 48.215h2.0312v-3.9258h-2.0312zm-13.574 0h2.0312v-3.9258h-2.0312zm14.379 8.4961h5.1562c0.55859 0 1.0117 0.45312 1.0117 1.0078v5.1562c0 0.55859-0.45313 1.0078-1.0117 1.0078l-5.1562 0.003907c-0.55469 0-1.0078-0.45312-1.0078-1.0117v-5.1562c0-0.55078 0.45312-1.0078 1.0078-1.0078zm-5.4297 19.277h-3.1367v3.1367h3.1367zm-4.1484-2.0195h5.1562c0.55859 0 1.0078 0.45312 1.0078 1.0078v5.1562c0 0.55859-0.45312 1.0078-1.0078 1.0078l-5.1562 0.003906c-0.55859 0-1.0078-0.45312-1.0078-1.0117v-5.1562c0-0.55469 0.45312-1.0078 1.0078-1.0078zm4.1484-6.6055h-3.1367v3.1367h3.1367zm-4.1484-2.0234h5.1562c0.55859 0 1.0078 0.45312 1.0078 1.0078v5.1602c0 0.55469-0.45312 1.0078-1.0078 1.0078l-5.1562 0.003906c-0.55859 0-1.0078-0.45312-1.0078-1.0117v-5.1562c0-0.55859 0.45312-1.0117 1.0078-1.0117zm4.1484-6.6055h-3.1367v3.1367h3.1367zm-4.1484-2.0234h5.1562c0.55859 0 1.0078 0.45312 1.0078 1.0078v5.1562c0 0.55859-0.45312 1.0078-1.0078 1.0078l-5.1562 0.003907c-0.55859 0-1.0078-0.45312-1.0078-1.0117v-5.1562c0-0.55078 0.45312-1.0078 1.0078-1.0078zm-5.4297 19.277h-3.1367v3.1367h3.1367zm-4.1484-2.0195h5.1562c0.55859 0 1.0117 0.45312 1.0117 1.0078v5.1562c0 0.55859-0.45313 1.0078-1.0117 1.0078l-5.1562 0.003906c-0.55859 0-1.0117-0.45312-1.0117-1.0117v-5.1562c0-0.55469 0.45703-1.0078 1.0117-1.0078zm4.1484-6.6055h-3.1367v3.1367h3.1367zm-4.1484-2.0234h5.1562c0.55859 0 1.0117 0.45312 1.0117 1.0078v5.1602c0 0.55469-0.45313 1.0078-1.0117 1.0078l-5.1562 0.003906c-0.55859 0-1.0117-0.45312-1.0117-1.0117v-5.1562c0-0.55859 0.45703-1.0117 1.0117-1.0117zm4.1484-6.6055h-3.1367v3.1367h3.1367zm-4.1484-2.0234h5.1562c0.55859 0 1.0117 0.45312 1.0117 1.0078v5.1562c0 0.55859-0.45313 1.0078-1.0117 1.0078l-5.1562 0.003907c-0.55859 0-1.0117-0.45312-1.0117-1.0117v-5.1562c0-0.55078 0.45703-1.0078 1.0117-1.0078zm2.7578-9.4492h-5.2188v5.9805h29.238v-5.9805h-4.375v1.9648c0 0.55859-0.45312 1.0078-1.0078 1.0078l-4.0547 0.003906c-0.55859 0-1.0078-0.45312-1.0078-1.0117v-1.9648h-7.5039v1.9648c0 0.55859-0.45312 1.0078-1.0117 1.0078l-4.0508 0.003906c-0.55859 0-1.0078-0.45312-1.0078-1.0117zm24.621 26.301c0-0.55859 0.45312-1.0117 1.0117-1.0117 0.55859 0.003907 1.0078 0.45312 1.0078 1.0078l0.003906 7.207 3.5859 2.0703c0.48047 0.27734 0.64844 0.89453 0.36719 1.375-0.28125 0.48047-0.89844 0.64844-1.3789 0.36719l-4.0312-2.3242c-0.33594-0.16406-0.56641-0.51172-0.56641-0.91016zm7.7773-0.83984c-1.7305-1.7305-4.125-2.8047-6.7656-2.8047-0.17578 0.003906-0.35156 0.007812-0.52344 0.015625l-0.027344 0.003906c-2.4219 0.13672-4.6055 1.1758-6.2148 2.7852-1.7305 1.7344-2.8047 4.125-2.8047 6.7656 0.003907 2.6445 1.0703 5.0352 2.8047 6.7695 1.7305 1.7305 4.125 2.8008 6.7656 2.8008 2.6445 0 5.0352-1.0703 6.7656-2.8008 1.7305-1.7305 2.8047-4.125 2.8047-6.7695 0-2.6406-1.0742-5.0352-2.8047-6.7656zm-14.078-2.2227c0.68359-0.55859 1.4297-1.0391 2.2305-1.4297v-1.7109h-3.1367v3.1367zm-3.8555 12.102c-0.27344-0.99219-0.42188-2.0352-0.42188-3.1133 0-2.6133 0.86719-5.0273 2.332-6.9688-0.54297-0.015625-0.98047-0.46094-0.98047-1.0078v-5.1562c0-0.55859 0.45313-1.0117 1.0078-1.0117l5.1562 0.003906c0.55859 0 1.0117 0.45312 1.0117 1.0078v1.957c0.47266-0.12891 0.95703-0.23047 1.4492-0.30078v-12.75h-29.238v27.336zm3.2891-23.867v3.1367h2.793v-3.1367zm-21.742-42.332-23.129 13.355-0.015625 0.007813-6.0312 3.4805v8.7031l7.4766 4.3164-0.003906-8.1211c0-0.39844 0.23047-0.74219 0.56641-0.90625l23.461-13.543 0.015625-0.011718 5.1406-2.9688-2.2891-1.3242c-0.019531-0.011719-0.035156-0.019531-0.058594-0.03125zm-37.625 10.805 7.4414 4.293 27.762-16.031 0.011719-0.007812 0.39453-0.22656-7.4375-4.293-14.59 8.4258v-0.003907l-0.003906 0.003907zm27.164 50.535v-32.531l-9.2148-5.3203v8.1172h-0.003907c0 0.17188-0.042968 0.34766-0.13672 0.50781-0.27734 0.48047-0.89453 0.64453-1.3789 0.36719l-9.4336-5.4453c-0.33594-0.16406-0.56641-0.50781-0.56641-0.91016v-9.2812l-7.4336-4.2891v32.531l14.531 8.3906c0.019531 0.011719 0.039062 0.019532 0.058594 0.027344zm30.184-48.789-28.164 16.262v32.527l5.1914-2.9961v-28.492c0-0.55859 0.45312-1.0117 1.0078-1.0117l6.2305 0.003906v-1.9648c0-0.55859 0.45312-1.0117 1.0078-1.0117h4.0547c0.55859 0 1.0078 0.45312 1.0078 1.0078v1.9648h7.5039v-1.9609c0-0.55859 0.45312-1.0117 1.0078-1.0117h1.1523zm-38.105 9.0273-0.019532 0.011719-0.27734 0.16016 9.2227 5.3242 28.176-16.27-9.2227-5.3203z"
        fill-rule="evenodd" />
</svg>