<svg xmlns="http://www.w3.org/2000/svg" version="1.1" viewBox="-5.0 -10.0 110.0 135.0">
    <path
        d="m90.406 47.398h-29.824c0.11719-0.41797 0.17578-0.85156 0.17578-1.2891v-26.758c-0.003906-2.6719-2.168-4.8359-4.8398-4.8398h-46.324c-2.6719 0.003906-4.8359 2.168-4.8398 4.8398v26.762c0.003906 2.6719 2.168 4.8359 4.8398 4.8398h11.25l18.398 10.621v17.43c0.003906 2.6719 2.168 4.8359 4.8398 4.8398h13.125v9.6016c0 0.63281 0.33984 1.2188 0.88672 1.5352 0.55078 0.31641 1.2266 0.31641 1.7773 0l19.285-11.137h11.25c2.6719-0.003906 4.8359-2.168 4.8398-4.8398v-26.762c-0.003906-2.6719-2.168-4.8398-4.8398-4.8438zm-68.199 0.23828c-0.26953-0.15625-0.57812-0.23828-0.88672-0.23828h-11.727c-0.71094 0-1.2891-0.57813-1.2891-1.2891v-26.758c0-0.71484 0.57812-1.2891 1.2891-1.293h46.324c0.71094 0.003906 1.2891 0.57812 1.2891 1.293v26.762c0 0.71094-0.57812 1.2891-1.2891 1.2891h-14.898c-0.98047 0-1.7773 0.79688-1.7773 1.7773v8.3008zm69.492 31.367c0 0.71484-0.57812 1.2891-1.2891 1.293h-11.73c-0.3125 0-0.61719 0.082031-0.88672 0.23438l-17.035 9.8359v-8.3008 0.003906c-0.003906-0.98047-0.79687-1.7695-1.7734-1.7695h-14.902c-0.71094 0-1.2891-0.57812-1.2891-1.2891v-26.773c0-0.71094 0.57812-1.2852 1.2891-1.2852h46.324c0.71094 0 1.2891 0.57812 1.2891 1.2891zm-15.328-54.562c-0.10156 0.625 0.13672 1.2578 0.62891 1.6602l12.699 10.391c0.49219 0.40234 1.1602 0.51172 1.7539 0.28516 0.59375-0.22656 1.0195-0.75 1.1211-1.3789l2.6484-16.191c0.10156-0.625-0.13672-1.2578-0.62891-1.6602-0.48828-0.40234-1.1562-0.51172-1.75-0.28516l-2.2578 0.85547v-0.003907c-3.0039-6.2617-8.6289-10.875-15.359-12.598-6.7305-1.7188-13.879-0.37109-19.52 3.6836-0.69531 0.5-0.9375 1.4219-0.57422 2.1953 0.36328 0.77734 1.2305 1.1797 2.0547 0.96484 4.3047-1.1094 8.8555-0.73438 12.914 1.0703 4.0586 1.8047 7.3906 4.9297 9.4492 8.8672l-2.0586 0.77734h0.003906c-0.59375 0.22266-1.0195 0.74219-1.125 1.3672zm13.199 7.3555-7.9414-6.5 9.6016-3.6289zm-17.047-21.172c-1.9492-0.97656-4.0312-1.6758-6.1758-2.0703 4.1797-0.64063 8.457 0.0625 12.215 2.0078s6.8008 5.0312 8.6914 8.8164l-4.3633 1.6484c-2.2383-4.5-5.875-8.1484-10.367-10.402zm-48.898 64.93v0.003906c0.10156-0.625-0.13672-1.2578-0.625-1.6602l-12.699-10.391c-0.49219-0.40234-1.1602-0.51172-1.7539-0.28516-0.59375 0.22656-1.0195 0.75-1.1211 1.3789l-2.6484 16.188c-0.10156 0.625 0.13672 1.2578 0.62891 1.6602 0.48828 0.40234 1.1562 0.51172 1.75 0.28516l2.2578-0.85547v0.003906c2.8516 6 8.1328 10.5 14.512 12.367 2.1797 0.64844 4.4414 0.97656 6.7148 0.98047 4.9023-0.007813 9.6797-1.5547 13.652-4.4297 0.69531-0.5 0.9375-1.4219 0.57422-2.1953-0.36328-0.77734-1.2305-1.1797-2.0547-0.96484-4.3047 1.1133-8.8555 0.73438-12.914-1.0703-4.0586-1.8047-7.3906-4.9297-9.4492-8.8672l2.0586-0.77734h-0.003906c0.59375-0.22266 1.0195-0.74609 1.125-1.3672zm-13.191-7.3555 7.9414 6.5-9.6016 3.6289zm17.043 21.176c1.9492 0.97656 4.0312 1.6758 6.1758 2.0703-4.1797 0.64063-8.457-0.0625-12.215-2.0078s-6.8008-5.0312-8.6914-8.8164l4.3633-1.6484c2.2383 4.5 5.875 8.1484 10.367 10.402zm45.922-27.398-3.6484 3.6484 3.6484 3.6484c0.69531 0.69141 0.69531 1.8164 0 2.5078-0.69141 0.69141-1.8164 0.69141-2.5078 0l-3.6484-3.6484-3.6406 3.6484c-0.69531 0.69141-1.8164 0.69141-2.5117 0-0.69141-0.69141-0.69141-1.8164 0-2.5078l3.6484-3.6484-3.6484-3.6484c-0.69141-0.69531-0.69141-1.8164 0-2.5117 0.69531-0.69141 1.8164-0.69141 2.5117 0l3.6484 3.6484 3.6484-3.6484c0.69141-0.69141 1.8164-0.69141 2.5078 0 0.69531 0.69531 0.69531 1.8164 0 2.5117zm-32.598-32.508-9.7578 9.7578h-0.003907c-0.33203 0.33594-0.78125 0.52344-1.2539 0.52344-0.46875 0-0.92188-0.1875-1.2539-0.52344l-3.8203-3.8281c-0.69531-0.69141-0.69531-1.8164 0-2.5078 0.69141-0.69141 1.8164-0.69141 2.5078 0l2.5703 2.5703 8.5-8.5c0.33203-0.33203 0.78516-0.51953 1.2539-0.51953 0.47266 0 0.92188 0.18359 1.2539 0.51953 0.69531 0.69141 0.69531 1.8164 0.003906 2.5078z" />
</svg>