<svg width="24" height="26" viewBox="0 0 19 23" fill="none" xmlns="http://www.w3.org/2000/svg">
    <path id="Symbol"
        d="M15.7173 12.0605C15.7173 12.1582 15.5708 15.0391 18.7446 16.5527C18.1587 18.3594 16.1079 22.3633 13.7153 22.3633C12.3481 22.3633 11.5669 21.4844 10.0044 21.4844C8.39307 21.4844 7.51416 22.3633 6.29346 22.3633C3.94971 22.4609 1.70361 18.0664 1.06885 16.2598C0.580566 14.8926 0.385254 13.5742 0.385254 12.3047C0.385254 7.95898 3.26611 5.85938 6.00049 5.81055C7.31885 5.81055 8.979 6.73828 9.71143 6.73828C10.395 6.73828 12.2993 5.61523 14.0571 5.76172C15.8638 5.9082 17.231 6.5918 18.1587 7.91016C16.5474 8.93555 15.7173 10.2539 15.7173 12.0605ZM12.9829 4.05273C12.0063 5.17578 10.8345 5.81055 9.56494 5.71289C9.46729 4.39453 9.95557 3.17383 10.8345 2.19727C11.6157 1.31836 12.9829 0.585938 14.1548 0.488281C14.1548 1.02539 14.3013 2.49023 12.9829 4.05273Z"
        fill="white" />
</svg>