<svg width="14" height="14" viewBox="0 0 14 14" fill="none" xmlns="http://www.w3.org/2000/svg">
    <path id="Symbol"
        d="M7.37076 3.80664C9.21646 3.80664 10.7399 5.33008 10.7399 7.17578C10.7399 9.05078 9.21646 10.5449 7.37076 10.5449C5.49576 10.5449 4.00162 9.05078 4.00162 7.17578C4.00162 5.33008 5.49576 3.80664 7.37076 3.80664ZM7.37076 9.37305C8.57193 9.37305 9.53872 8.40625 9.53872 7.17578C9.53872 5.97461 8.57193 5.00781 7.37076 5.00781C6.14029 5.00781 5.17349 5.97461 5.17349 7.17578C5.17349 8.40625 6.16958 9.37305 7.37076 9.37305ZM11.6481 3.68945C11.6481 4.12891 11.2965 4.48047 10.8571 4.48047C10.4176 4.48047 10.0661 4.12891 10.0661 3.68945C10.0661 3.25 10.4176 2.89844 10.8571 2.89844C11.2965 2.89844 11.6481 3.25 11.6481 3.68945ZM13.8747 4.48047C13.9333 5.56445 13.9333 8.81641 13.8747 9.90039C13.8161 10.9551 13.5817 11.8633 12.82 12.6543C12.0583 13.416 11.1208 13.6504 10.0661 13.709C8.98208 13.7676 5.73013 13.7676 4.64615 13.709C3.59146 13.6504 2.68326 13.416 1.89224 12.6543C1.13052 11.8633 0.896147 10.9551 0.837553 9.90039C0.778959 8.81641 0.778959 5.56445 0.837553 4.48047C0.896147 3.42578 1.13052 2.48828 1.89224 1.72656C2.68326 0.964844 3.59146 0.730469 4.64615 0.671875C5.73013 0.613281 8.98208 0.613281 10.0661 0.671875C11.1208 0.730469 12.0583 0.964844 12.82 1.72656C13.5817 2.48828 13.8161 3.42578 13.8747 4.48047ZM12.4684 11.043C12.82 10.1934 12.7321 8.14258 12.7321 7.17578C12.7321 6.23828 12.82 4.1875 12.4684 3.30859C12.234 2.75195 11.7946 2.2832 11.2379 2.07812C10.359 1.72656 8.30826 1.81445 7.37076 1.81445C6.40396 1.81445 4.35318 1.72656 3.50357 2.07812C2.91763 2.3125 2.47818 2.75195 2.2438 3.30859C1.89224 4.1875 1.98013 6.23828 1.98013 7.17578C1.98013 8.14258 1.89224 10.1934 2.2438 11.043C2.47818 11.6289 2.91763 12.0684 3.50357 12.3027C4.35318 12.6543 6.40396 12.5664 7.37076 12.5664C8.30826 12.5664 10.359 12.6543 11.2379 12.3027C11.7946 12.0684 12.2633 11.6289 12.4684 11.043Z"
        fill="white" />
</svg>