<svg width="16" height="13" viewBox="0 0 16 13" fill="none" xmlns="http://www.w3.org/2000/svg">
    <path id="Symbol"
        d="M14.3247 3.12891C14.3247 3.27539 14.3247 3.39258 14.3247 3.53906C14.3247 7.61133 11.2485 12.2695 5.59424 12.2695C3.83643 12.2695 2.2251 11.7715 0.877441 10.8926C1.11182 10.9219 1.34619 10.9512 1.60986 10.9512C3.04541 10.9512 4.36377 10.4531 5.41846 9.63281C4.0708 9.60352 2.92822 8.72461 2.54736 7.49414C2.75244 7.52344 2.92822 7.55273 3.1333 7.55273C3.39697 7.55273 3.68994 7.49414 3.92432 7.43555C2.51807 7.14258 1.46338 5.91211 1.46338 4.41797V4.38867C1.87354 4.62305 2.37158 4.74023 2.86963 4.76953C2.02002 4.21289 1.49268 3.27539 1.49268 2.2207C1.49268 1.63477 1.63916 1.10742 1.90283 0.667969C3.42627 2.51367 5.71143 3.74414 8.26025 3.89062C8.20166 3.65625 8.17236 3.42188 8.17236 3.1875C8.17236 1.48828 9.54932 0.111328 11.2485 0.111328C12.1274 0.111328 12.9185 0.462891 13.5044 1.07812C14.1782 0.931641 14.8521 0.667969 15.438 0.316406C15.2036 1.04883 14.7349 1.63477 14.0903 2.01562C14.7056 1.95703 15.3208 1.78125 15.8481 1.54688C15.438 2.16211 14.9106 2.68945 14.3247 3.12891Z"
        fill="white" />
</svg>