<svg width="14" height="14" viewBox="0 0 14 14" fill="none" xmlns="http://www.w3.org/2000/svg">
<path id="Symbol" d="M3.73794 13.8008H1.01333V5.04102H3.73794V13.8008ZM2.36099 3.86914C1.51138 3.86914 0.808256 3.13672 0.808256 2.25781C0.808256 1.4082 1.51138 0.705078 2.36099 0.705078C3.2399 0.705078 3.94302 1.4082 3.94302 2.25781C3.94302 3.13672 3.2399 3.86914 2.36099 3.86914ZM13.904 13.8008H11.2086V9.55273C11.2086 8.52734 11.1793 7.23828 9.7731 7.23828C8.36685 7.23828 8.16177 8.32227 8.16177 9.46484V13.8008H5.43716V5.04102H8.04458V6.24219H8.07388C8.45474 5.56836 9.33365 4.83594 10.652 4.83594C13.4059 4.83594 13.9333 6.65234 13.9333 8.99609V13.8008H13.904Z" fill="white"/>
</svg>
