<svg width="15" height="15" viewBox="0 0 15 15" fill="none" xmlns="http://www.w3.org/2000/svg">
<path id="Vector" d="M13.6414 0.470703H5.08585C4.87089 0.470703 4.69695 0.644646 4.69695 0.859604C4.69695 1.07456 4.87089 1.24851 5.08585 1.24851H12.7026L0.144215 13.8069C-0.00770696 13.9588 -0.00770696 14.2049 0.144215 14.3568C0.220158 14.4327 0.319689 14.4707 0.419184 14.4707C0.518679 14.4707 0.618174 14.4327 0.694153 14.3568L13.2525 1.7984V9.41517C13.2525 9.63013 13.4264 9.80407 13.6414 9.80407C13.8564 9.80407 14.0303 9.63013 14.0303 9.41517V0.859604C14.0303 0.644646 13.8563 0.470703 13.6414 0.470703Z" fill="white"/>
</svg>
