<svg width="15" height="16" viewBox="0 0 15 16" fill="none" xmlns="http://www.w3.org/2000/svg">
<g clip-path="url(#clip0_4_11197)">
<path d="M7.5 8.575C5.23333 8.575 3.5 9.09167 2.3 10.125C1.1 11.1583 0.5 12.6417 0.5 14.575C0.5 14.7417 0.558333 14.875 0.675 14.975C0.791667 15.075 0.916667 15.125 1.05 15.125H13.95C14.0833 15.125 14.2083 15.075 14.325 14.975C14.4417 14.875 14.5 14.7417 14.5 14.575C14.5 12.6417 13.9 11.1583 12.7 10.125C11.5 9.09167 9.76667 8.575 7.5 8.575ZM1.65 14.025C1.85 11.125 3.8 9.675 7.5 9.675C11.2 9.675 13.15 11.125 13.35 14.025H1.65ZM7.5 0.125C6.83333 0.125 6.21667 0.283333 5.65 0.599999C5.08333 0.916666 4.64167 1.35833 4.325 1.925C4.00833 2.49167 3.85 3.125 3.85 3.825C3.85 4.525 4.01667 5.18333 4.35 5.8C4.68333 6.41667 5.125 6.9 5.675 7.25C6.225 7.6 6.83333 7.775 7.5 7.775C8.16667 7.775 8.775 7.6 9.325 7.25C9.875 6.9 10.3167 6.41667 10.65 5.8C10.9833 5.18333 11.15 4.525 11.15 3.825C11.15 3.125 10.9917 2.49167 10.675 1.925C10.3583 1.35833 9.91667 0.916666 9.35 0.599999C8.78333 0.283333 8.16667 0.125 7.5 0.125ZM7.5 6.675C6.8 6.675 6.2 6.4 5.7 5.85C5.2 5.3 4.95 4.63333 4.95 3.85C4.95 3.06667 5.19167 2.43333 5.675 1.95C6.15833 1.46667 6.76667 1.225 7.5 1.225C8.23333 1.225 8.84167 1.475 9.325 1.975C9.80833 2.475 10.05 3.10833 10.05 3.875C10.05 4.64167 9.8 5.3 9.3 5.85C8.8 6.4 8.2 6.675 7.5 6.675Z" fill="#050B20"/>
</g>
<defs>
<clipPath id="clip0_4_11197">
<rect width="15" height="15" fill="white" transform="matrix(1 0 0 -1 0 15.125)"/>
</clipPath>
</defs>
</svg>
