<svg width="61" height="61" viewBox="0 0 61 61" fill="none" xmlns="http://www.w3.org/2000/svg">
<g clip-path="url(#clip0_4_10676)">
<path d="M30.5 2.81372V7.50122" stroke="#FF5CF4" stroke-width="3" stroke-miterlimit="10" stroke-linecap="round" stroke-linejoin="round"/>
<path d="M49.25 2.81372L44.5625 7.50122" stroke="#FF5CF4" stroke-width="3" stroke-miterlimit="10" stroke-linecap="round" stroke-linejoin="round"/>
<path d="M15.9738 37.1306C14.8072 35.8755 14.0938 34.1935 14.0938 32.3449C14.0938 31.2163 14.3596 30.1499 14.8323 29.2046L19.5198 19.8296C20.6732 17.5228 23.0579 15.9387 25.8125 15.9387H18.7812C16.0266 15.9387 13.642 17.5228 12.4885 19.8296L7.80102 29.2046C7.3284 30.1499 7.0625 31.2163 7.0625 32.3449C7.0625 34.1935 7.77594 35.8755 8.94254 37.1306L27.0658 56.6291C27.9218 57.5501 29.1436 58.1261 30.5 58.1261C31.8564 58.1261 33.0782 57.5501 33.9342 56.6292L34.0156 56.5415L15.9738 37.1306Z" fill="#EEF1FB"/>
<path d="M48.5115 19.8296L53.199 29.2046C53.6716 30.1497 53.9375 31.2163 53.9375 32.3449C53.9375 34.1935 53.2241 35.8756 52.0575 37.1307L33.9342 56.6292C33.0782 57.5501 31.8564 58.1261 30.5 58.1261C29.1436 58.1261 27.9218 57.5501 27.0658 56.6292L8.94254 37.1307C7.77594 35.8756 7.0625 34.1935 7.0625 32.3449C7.0625 31.2163 7.3284 30.1497 7.80102 29.2046L12.4885 19.8296C13.642 17.5227 16.0266 15.9387 18.7812 15.9387H42.2188C44.9734 15.9387 47.358 17.5227 48.5115 19.8296Z" stroke="#405FF2" stroke-width="3" stroke-miterlimit="10" stroke-linecap="round" stroke-linejoin="round"/>
<path d="M11.75 2.81372L16.4375 7.50122" stroke="#FF5CF4" stroke-width="3" stroke-miterlimit="10" stroke-linecap="round" stroke-linejoin="round"/>
<path d="M17.8849 30.0012H43.1151" stroke="#405FF2" stroke-width="3" stroke-miterlimit="10" stroke-linecap="round" stroke-linejoin="round"/>
<path d="M25.8125 25.3137L30.5 30.0011L35.1875 25.3137" stroke="#405FF2" stroke-width="3" stroke-miterlimit="10" stroke-linecap="round" stroke-linejoin="round"/>
<path d="M30.5 44.0639V30.2007" stroke="#405FF2" stroke-width="3" stroke-miterlimit="10" stroke-linecap="round" stroke-linejoin="round"/>
</g>
<defs>
<clipPath id="clip0_4_10676">
<rect width="60" height="60" fill="white" transform="translate(0.5 0.469971)"/>
</clipPath>
</defs>
</svg>
