<svg width="61" height="61" viewBox="0 0 61 61" fill="none" xmlns="http://www.w3.org/2000/svg">
<g clip-path="url(#clip0_4_10706)">
<path d="M24.0465 4.9231C20.3452 4.9231 16.9904 7.1008 15.4836 10.4814L9.38656 24.1606C5.73148 24.4118 2.84375 27.4543 2.84375 31.1731V36.5638C2.84375 39.7998 5.46711 42.4231 8.70312 42.4231H10.3092C10.3179 41.9722 10.3293 41.5214 10.3438 41.0705C9.9623 40.293 9.74727 39.419 9.74727 38.4945L9.64062 34.3372C9.64062 31.2627 10.2662 30.0794 12.5483 29.6197C13.6331 29.4011 14.5413 28.662 14.9858 27.6486L22.5148 10.4814C24.0215 7.1008 27.3764 4.9231 31.0777 4.9231H24.0465Z" fill="#EEF1FB"/>
<path d="M8.70312 42.4231C5.46711 42.4231 2.84375 39.7998 2.84375 36.5638V31.1731C2.84375 27.4543 5.73148 24.4118 9.38656 24.1606L15.4836 10.4814C16.9903 7.1008 20.3451 4.9231 24.0465 4.9231H34.7217C38.2441 4.9231 41.4692 6.89748 43.0711 10.0346L46.0859 15.9388M58.1562 31.1731C58.1562 27.2899 55.0082 24.1419 51.125 24.1419H19.1328M28.7422 15.9388V5.04029M32.9609 42.4231H27.6873M21.242 37.7356C18.6532 37.7356 16.5545 39.8343 16.5545 42.4231C16.5545 45.0119 18.6532 47.1106 21.242 47.1106C23.8307 47.1106 25.9295 45.0119 25.9295 42.4231C25.9295 39.8343 23.8309 37.7356 21.242 37.7356Z" stroke="#405FF2" stroke-width="3" stroke-miterlimit="10" stroke-linecap="round" stroke-linejoin="round"/>
<path d="M58.1562 42.0716C58.1562 46.5697 54.5097 50.2747 50.0117 50.2747C45.5136 50.2747 41.8671 46.6283 41.8671 42.1302C41.8671 37.632 45.5722 33.9856 50.0703 33.9856M44.0351 48.5755L36.5938 56.0169" stroke="#FF5CF3" stroke-width="3" stroke-miterlimit="10" stroke-linecap="round" stroke-linejoin="round"/>
</g>
<defs>
<clipPath id="clip0_4_10706">
<rect width="60" height="60" fill="white" transform="translate(0.5 0.469971)"/>
</clipPath>
</defs>
</svg>
