<svg width="18" height="19" viewBox="0 0 18 19" fill="none" xmlns="http://www.w3.org/2000/svg">
<g id="Icon" clip-path="url(#clip0_47_133)">
<path id="Vector" d="M10.68 3.86C10.68 3.7 10.63 3.57 10.53 3.47C10.43 3.37 10.3 3.32 10.14 3.32H4.50004C4.34004 3.32 4.21004 3.37 4.11004 3.47C4.01004 3.57 3.96004 3.7 3.96004 3.86V8.36C3.96004 8.52 4.01004 8.66 4.11004 8.78C4.21004 8.9 4.34004 8.96 4.50004 8.96H10.14C10.3 8.96 10.43 8.9 10.53 8.78C10.63 8.66 10.68 8.52 10.68 8.36V3.86ZM9.54004 7.82H5.04004V4.46H9.54004V7.82ZM17.16 4.46L14.88 3.38C14.76 3.3 14.62 3.28 14.46 3.32C14.3 3.36 14.19 3.45 14.13 3.59C14.07 3.73 14.06 3.88 14.1 4.04C14.14 4.2 14.24 4.3 14.4 4.34L15.24 4.82L15.18 5C15.18 5.36 15.29 5.68 15.51 5.96C15.73 6.24 16 6.44 16.32 6.56V13.4C16.32 13.56 16.26 13.7 16.14 13.82C16.02 13.94 15.89 14 15.75 14C15.61 14 15.48 13.94 15.36 13.82C15.24 13.7 15.18 13.56 15.18 13.4V8.9C15.18 8.26 14.95 7.68 14.49 7.16C14.03 6.64 13.52 6.32 12.96 6.2V2.72C12.96 2.12 12.74 1.6 12.3 1.16C11.86 0.720001 11.34 0.5 10.74 0.5H3.96004C3.36004 0.5 2.83004 0.720001 2.37004 1.16C1.91004 1.6 1.68004 2.12 1.68004 2.72V15.32L0.900039 15.74C0.660039 15.86 0.540039 16.02 0.540039 16.22V17.9C0.540039 18.06 0.600039 18.2 0.720039 18.32C0.840039 18.44 0.980039 18.5 1.14004 18.5H13.5C13.66 18.5 13.79 18.44 13.89 18.32C13.99 18.2 14.04 18.06 14.04 17.9V16.22C14.04 16.02 13.94 15.86 13.74 15.74L12.96 15.32V7.34C13.24 7.46 13.49 7.67 13.71 7.97C13.93 8.27 14.04 8.58 14.04 8.9V13.4C14.04 13.88 14.21 14.29 14.55 14.63C14.89 14.97 15.29 15.14 15.75 15.14C16.21 15.14 16.61 14.97 16.95 14.63C17.29 14.29 17.46 13.88 17.46 13.4V5C17.46 4.76 17.36 4.58 17.16 4.46ZM12.96 17.36H1.68004V16.58L2.52004 16.16C2.72004 16.08 2.82004 15.92 2.82004 15.68V2.72C2.82004 2.44 2.93004 2.19 3.15004 1.97C3.37004 1.75 3.64004 1.64 3.96004 1.64H10.74C11.02 1.64 11.27 1.75 11.49 1.97C11.71 2.19 11.82 2.44 11.82 2.72V15.68C11.82 15.92 11.92 16.08 12.12 16.16L12.96 16.58V17.36Z" fill="#050B20"/>
</g>
<defs>
<clipPath id="clip0_47_133">
<rect width="18" height="18" fill="white" transform="matrix(1 0 0 -1 0 18.5)"/>
</clipPath>
</defs>
</svg>
