<svg xmlns="http://www.w3.org/2000/svg" version="1.1" viewBox="-5.0 -10.0 110.0 135.0">
    <path
        d="m20.832 47.914v10.418c0 1.1523 0.93359 2.082 2.082 2.082h56.25c1.1523 0 2.082-0.93359 2.082-2.082v-10.418zm10.418 4.168h8.332c1.1523 0 2.082 0.93359 2.082 2.082 0 1.1523-0.93359 2.082-2.082 2.082h-8.332c-1.1523 0-2.082-0.93359-2.082-2.082 0-1.1523 0.93359-2.082 2.082-2.082zm14.582 0h8.332c1.1523 0 2.082 0.93359 2.082 2.082 0 1.1523-0.93359 2.082-2.082 2.082h-8.332c-1.1523 0-2.082-0.93359-2.082-2.082 0-1.1523 0.93359-2.082 2.082-2.082z" />
    <path
        d="m31.25 6.25c-0.97656 0-1.8242 0.67969-2.0352 1.6328l-2.418 10.867h-12.215c-1.1523 0-2.082 0.93359-2.082 2.082v54.168c0 1.1523 0.93359 2.082 2.082 2.082h24.543l-1.2539 6.25h-6.6211c-1.1523 0-2.082 0.93359-2.082 2.082v6.25c0 1.1523 0.93359 2.082 2.082 2.082h37.5c1.1523 0 2.082-0.93359 2.082-2.082v-6.25c0-1.1523-0.93359-2.082-2.082-2.082h-6.625l-1.2539-6.25h24.547c1.1523 0 2.082-0.93359 2.082-2.082v-54.168c0-1.1523-0.93359-2.082-2.082-2.082h-10.133l-2.418-10.867c-0.21094-0.95312-1.0586-1.6328-2.0352-1.6328zm-14.582 16.668h9.207l-4.6289 20.832h59.594l-4.6289-20.832 7.1211-0.003907v41.668h-66.668zm26.707 54.168h13.25l1.25 6.25h-15.75z" />
</svg>