<svg width="18" height="19" viewBox="0 0 18 19" fill="none" xmlns="http://www.w3.org/2000/svg">
<g id="Icon" clip-path="url(#clip0_47_130)">
<path id="Vector" d="M18 11.1202C18 13.1602 17.4 14.9802 16.2 16.5802C16.08 16.7402 15.92 16.8302 15.72 16.8502C15.52 16.8702 15.34 16.8202 15.18 16.7002C15.02 16.5802 14.93 16.4302 14.91 16.2502C14.89 16.0702 14.94 15.9002 15.06 15.7402C16.1 14.3802 16.62 12.8402 16.62 11.1202C16.62 9.76021 16.28 8.50021 15.6 7.34021C14.92 6.18021 13.99 5.26021 12.81 4.58021C11.63 3.90021 10.36 3.56021 9 3.56021C7.64 3.56021 6.37 3.90021 5.19 4.58021C4.01 5.26021 3.08 6.18021 2.4 7.34021C1.72 8.50021 1.38 9.76021 1.38 11.1202C1.38 12.8402 1.9 14.3802 2.94 15.7402C3.06 15.9002 3.11 16.0702 3.09 16.2502C3.07 16.4302 2.98 16.5802 2.82 16.7002C2.66 16.8202 2.48 16.8702 2.28 16.8502C2.08 16.8302 1.92 16.7402 1.8 16.5802C0.6 14.9802 0 13.1602 0 11.1202C0 9.52021 0.4 8.03021 1.2 6.65021C2 5.27021 3.09 4.18021 4.47 3.38021C5.85 2.58021 7.36 2.18021 9 2.18021C10.64 2.18021 12.15 2.58021 13.53 3.38021C14.91 4.18021 16 5.27021 16.8 6.65021C17.6 8.03021 18 9.52021 18 11.1202ZM13.44 6.92021C13.6 7.04021 13.68 7.20021 13.68 7.40021C13.68 7.60021 13.6 7.76021 13.44 7.88021L11.16 10.2202C11.36 10.5802 11.46 10.9602 11.46 11.3602C11.46 12.0402 11.22 12.6202 10.74 13.1002C10.26 13.5802 9.68 13.8202 9 13.8202C8.32 13.8202 7.74 13.5802 7.26 13.1002C6.78 12.6202 6.54 12.0402 6.54 11.3602C6.54 10.6802 6.78 10.1002 7.26 9.62021C7.74 9.14021 8.32 8.90021 9 8.90021C9.4 8.90021 9.78 9.00021 10.14 9.20021L12.48 6.92021C12.6 6.76021 12.76 6.68021 12.96 6.68021C13.16 6.68021 13.32 6.76021 13.44 6.92021ZM10.08 11.3602C10.08 11.0802 9.97 10.8402 9.75 10.6402C9.53 10.4402 9.28 10.3402 9 10.3402C8.72 10.3402 8.47 10.4402 8.25 10.6402C8.03 10.8402 7.92 11.0802 7.92 11.3602C7.92 11.6402 8.03 11.8902 8.25 12.1102C8.47 12.3302 8.72 12.4402 9 12.4402C9.28 12.4402 9.53 12.3302 9.75 12.1102C9.97 11.8902 10.08 11.6402 10.08 11.3602Z" fill="#050B20"/>
</g>
<defs>
<clipPath id="clip0_47_130">
<rect width="18" height="18" fill="white" transform="matrix(1 0 0 -1 0 18.5)"/>
</clipPath>
</defs>
</svg>
