<svg width="18" height="19" viewBox="0 0 18 19" fill="none" xmlns="http://www.w3.org/2000/svg">
<g id="Icon" clip-path="url(#clip0_47_139)">
<path id="Vector" d="M14.52 1.88H13.86V1.22C13.86 1.02 13.79 0.85 13.65 0.710001C13.51 0.57 13.34 0.5 13.14 0.5C12.94 0.5 12.77 0.57 12.63 0.710001C12.49 0.85 12.42 1.02 12.42 1.22V1.88H5.58V1.22C5.58 1.02 5.51 0.85 5.37 0.710001C5.23 0.57 5.06 0.5 4.86 0.5C4.66 0.5 4.49 0.57 4.35 0.710001C4.21 0.85 4.14 1.02 4.14 1.22V1.88H3.48C2.84 1.88 2.26 2.04 1.74 2.36C1.22 2.68 0.8 3.1 0.48 3.62C0.16 4.14 0 4.72 0 5.36V15.02C0 15.66 0.16 16.24 0.48 16.76C0.8 17.28 1.22 17.7 1.74 18.02C2.26 18.34 2.84 18.5 3.48 18.5H14.52C15.16 18.5 15.74 18.34 16.26 18.02C16.78 17.7 17.2 17.28 17.52 16.76C17.84 16.24 18 15.66 18 15.02V5.36C18 4.72 17.84 4.14 17.52 3.62C17.2 3.1 16.78 2.68 16.26 2.36C15.74 2.04 15.16 1.88 14.52 1.88ZM3.48 3.32H4.14V4.64C4.14 4.84 4.21 5.01 4.35 5.15C4.49 5.29 4.66 5.36 4.86 5.36C5.06 5.36 5.23 5.29 5.37 5.15C5.51 5.01 5.58 4.84 5.58 4.64V3.32H12.42V4.64C12.42 4.84 12.49 5.01 12.63 5.15C12.77 5.29 12.94 5.36 13.14 5.36C13.34 5.36 13.51 5.29 13.65 5.15C13.79 5.01 13.86 4.84 13.86 4.64V3.32H14.52C15.08 3.32 15.57 3.52 15.99 3.92C16.41 4.32 16.62 4.8 16.62 5.36V6.02H1.38V5.36C1.38 4.8 1.59 4.32 2.01 3.92C2.43 3.52 2.92 3.32 3.48 3.32ZM14.52 17.12H3.48C2.92 17.12 2.43 16.91 2.01 16.49C1.59 16.07 1.38 15.58 1.38 15.02V7.46H16.62V15.02C16.62 15.58 16.41 16.07 15.99 16.49C15.57 16.91 15.08 17.12 14.52 17.12ZM6.24 10.22C6.24 10.42 6.17 10.58 6.03 10.7C5.89 10.82 5.72 10.88 5.52 10.88H4.14C3.94 10.88 3.78 10.82 3.66 10.7C3.54 10.58 3.48 10.42 3.48 10.22C3.48 10.02 3.54 9.85 3.66 9.71C3.78 9.57 3.94 9.5 4.14 9.5H5.52C5.72 9.5 5.89 9.57 6.03 9.71C6.17 9.85 6.24 10.02 6.24 10.22ZM14.52 10.22C14.52 10.42 14.46 10.58 14.34 10.7C14.22 10.82 14.06 10.88 13.86 10.88H12.48C12.28 10.88 12.11 10.82 11.97 10.7C11.83 10.58 11.76 10.42 11.76 10.22C11.76 10.02 11.83 9.85 11.97 9.71C12.11 9.57 12.28 9.5 12.48 9.5H13.86C14.06 9.5 14.22 9.57 14.34 9.71C14.46 9.85 14.52 10.02 14.52 10.22ZM10.38 10.22C10.38 10.42 10.31 10.58 10.17 10.7C10.03 10.82 9.86 10.88 9.66 10.88H8.28C8.12 10.88 7.97 10.82 7.83 10.7C7.69 10.58 7.62 10.42 7.62 10.22C7.62 10.02 7.69 9.85 7.83 9.71C7.97 9.57 8.12 9.5 8.28 9.5H9.66C9.86 9.5 10.03 9.57 10.17 9.71C10.31 9.85 10.38 10.02 10.38 10.22ZM6.24 14.36C6.24 14.56 6.17 14.73 6.03 14.87C5.89 15.01 5.72 15.08 5.52 15.08H4.14C3.94 15.08 3.78 15.01 3.66 14.87C3.54 14.73 3.48 14.56 3.48 14.36C3.48 14.16 3.54 13.99 3.66 13.85C3.78 13.71 3.94 13.64 4.14 13.64H5.52C5.72 13.64 5.89 13.71 6.03 13.85C6.17 13.99 6.24 14.16 6.24 14.36ZM14.52 14.36C14.52 14.56 14.46 14.73 14.34 14.87C14.22 15.01 14.06 15.08 13.86 15.08H12.48C12.28 15.08 12.11 15.01 11.97 14.87C11.83 14.73 11.76 14.56 11.76 14.36C11.76 14.16 11.83 13.99 11.97 13.85C12.11 13.71 12.28 13.64 12.48 13.64H13.86C14.06 13.64 14.22 13.71 14.34 13.85C14.46 13.99 14.52 14.16 14.52 14.36ZM10.38 14.36C10.38 14.56 10.31 14.73 10.17 14.87C10.03 15.01 9.86 15.08 9.66 15.08H8.28C8.12 15.08 7.97 15.01 7.83 14.87C7.69 14.73 7.62 14.56 7.62 14.36C7.62 14.16 7.69 13.99 7.83 13.85C7.97 13.71 8.12 13.64 8.28 13.64H9.66C9.86 13.64 10.03 13.71 10.17 13.85C10.31 13.99 10.38 14.16 10.38 14.36Z" fill="#050B20"/>
</g>
<defs>
<clipPath id="clip0_47_139">
<rect width="18" height="18" fill="white" transform="matrix(1 0 0 -1 0 18.5)"/>
</clipPath>
</defs>
</svg>
