<svg width="14" height="15" viewBox="0 0 14 15" fill="none" xmlns="http://www.w3.org/2000/svg">
    <g id="SVG">
        <path id="Vector"
            d="M13.6109 0.970215H5.05533C4.84037 0.970215 4.66643 1.14416 4.66643 1.35912C4.66643 1.57407 4.84037 1.74802 5.05533 1.74802H12.6721L0.113697 14.3064C-0.0382245 14.4583 -0.0382245 14.7044 0.113697 14.8563C0.18964 14.9322 0.289171 14.9702 0.388666 14.9702C0.488161 14.9702 0.587656 14.9322 0.663635 14.8563L13.222 2.29791V9.91469C13.222 10.1296 13.3959 10.3036 13.6109 10.3036C13.8259 10.3036 13.9998 10.1296 13.9998 9.91469V1.35912C13.9998 1.14416 13.8258 0.970215 13.6109 0.970215Z"
            fill="#405FF2" />
    </g>
</svg>