<svg width="18" height="19" viewBox="0 0 18 19" fill="none" xmlns="http://www.w3.org/2000/svg">
<g id="Icon">
<path id="Vector" d="M2.99996 2.17982C2.43996 2.17982 1.95996 2.37982 1.55996 2.77982C1.15996 3.17982 0.959961 3.66982 0.959961 4.24982C0.959961 4.82982 1.15996 5.31982 1.55996 5.71982C1.95996 6.11982 2.43996 6.31982 2.99996 6.31982C3.55996 6.31982 4.03996 6.11982 4.43996 5.71982C4.83996 5.31982 5.03996 4.82982 5.03996 4.24982C5.03996 3.66982 4.83996 3.17982 4.43996 2.77982C4.03996 2.37982 3.55996 2.17982 2.99996 2.17982ZM2.99996 3.31982C3.23996 3.31982 3.45996 3.40982 3.65996 3.58982C3.85996 3.76982 3.95996 3.98982 3.95996 4.24982C3.95996 4.50982 3.85996 4.72982 3.65996 4.90982C3.45996 5.08982 3.23996 5.17982 2.99996 5.17982C2.75996 5.17982 2.53996 5.08982 2.33996 4.90982C2.13996 4.72982 2.03996 4.50982 2.03996 4.24982C2.03996 3.98982 2.13996 3.76982 2.33996 3.58982C2.53996 3.40982 2.75996 3.31982 2.99996 3.31982ZM2.99996 12.6798C2.43996 12.6798 1.95996 12.8798 1.55996 13.2798C1.15996 13.6798 0.959961 14.1698 0.959961 14.7498C0.959961 15.3298 1.15996 15.8198 1.55996 16.2198C1.95996 16.6198 2.43996 16.8198 2.99996 16.8198C3.55996 16.8198 4.03996 16.6198 4.43996 16.2198C4.83996 15.8198 5.03996 15.3298 5.03996 14.7498C5.03996 14.1698 4.83996 13.6798 4.43996 13.2798C4.03996 12.8798 3.55996 12.6798 2.99996 12.6798ZM2.99996 13.8198C3.23996 13.8198 3.45996 13.9098 3.65996 14.0898C3.85996 14.2698 3.95996 14.4898 3.95996 14.7498C3.95996 15.0098 3.85996 15.2298 3.65996 15.4098C3.45996 15.5898 3.23996 15.6798 2.99996 15.6798C2.75996 15.6798 2.53996 15.5898 2.33996 15.4098C2.13996 15.2298 2.03996 15.0098 2.03996 14.7498C2.03996 14.4898 2.13996 14.2698 2.33996 14.0898C2.53996 13.9098 2.75996 13.8198 2.99996 13.8198ZM8.99996 2.17982C8.43996 2.17982 7.95996 2.37982 7.55996 2.77982C7.15996 3.17982 6.95996 3.66982 6.95996 4.24982C6.95996 4.82982 7.15996 5.31982 7.55996 5.71982C7.95996 6.11982 8.43996 6.31982 8.99996 6.31982C9.55996 6.31982 10.04 6.11982 10.44 5.71982C10.84 5.31982 11.04 4.82982 11.04 4.24982C11.04 3.66982 10.84 3.17982 10.44 2.77982C10.04 2.37982 9.55996 2.17982 8.99996 2.17982ZM8.99996 3.31982C9.23996 3.31982 9.45996 3.40982 9.65996 3.58982C9.85996 3.76982 9.95996 3.98982 9.95996 4.24982C9.95996 4.50982 9.85996 4.72982 9.65996 4.90982C9.45996 5.08982 9.23996 5.17982 8.99996 5.17982C8.75996 5.17982 8.53996 5.08982 8.33996 4.90982C8.13996 4.72982 8.03996 4.50982 8.03996 4.24982C8.03996 3.98982 8.13996 3.76982 8.33996 3.58982C8.53996 3.40982 8.75996 3.31982 8.99996 3.31982ZM8.99996 12.6798C8.43996 12.6798 7.95996 12.8798 7.55996 13.2798C7.15996 13.6798 6.95996 14.1698 6.95996 14.7498C6.95996 15.3298 7.15996 15.8198 7.55996 16.2198C7.95996 16.6198 8.43996 16.8198 8.99996 16.8198C9.55996 16.8198 10.04 16.6198 10.44 16.2198C10.84 15.8198 11.04 15.3298 11.04 14.7498C11.04 14.1698 10.84 13.6798 10.44 13.2798C10.04 12.8798 9.55996 12.6798 8.99996 12.6798ZM8.99996 13.8198C9.23996 13.8198 9.45996 13.9098 9.65996 14.0898C9.85996 14.2698 9.95996 14.4898 9.95996 14.7498C9.95996 15.0098 9.85996 15.2298 9.65996 15.4098C9.45996 15.5898 9.23996 15.6798 8.99996 15.6798C8.75996 15.6798 8.53996 15.5898 8.33996 15.4098C8.13996 15.2298 8.03996 15.0098 8.03996 14.7498C8.03996 14.4898 8.13996 14.2698 8.33996 14.0898C8.53996 13.9098 8.75996 13.8198 8.99996 13.8198ZM15 2.17982C14.44 2.17982 13.96 2.37982 13.56 2.77982C13.16 3.17982 12.96 3.66982 12.96 4.24982C12.96 4.82982 13.16 5.31982 13.56 5.71982C13.96 6.11982 14.44 6.31982 15 6.31982C15.56 6.31982 16.04 6.11982 16.44 5.71982C16.84 5.31982 17.04 4.82982 17.04 4.24982C17.04 3.66982 16.84 3.17982 16.44 2.77982C16.04 2.37982 15.56 2.17982 15 2.17982ZM15 3.31982C15.24 3.31982 15.46 3.40982 15.66 3.58982C15.86 3.76982 15.96 3.98982 15.96 4.24982C15.96 4.50982 15.86 4.72982 15.66 4.90982C15.46 5.08982 15.24 5.17982 15 5.17982C14.76 5.17982 14.54 5.08982 14.34 4.90982C14.14 4.72982 14.04 4.50982 14.04 4.24982C14.04 3.98982 14.14 3.76982 14.34 3.58982C14.54 3.40982 14.76 3.31982 15 3.31982ZM15 12.6798C14.44 12.6798 13.96 12.8798 13.56 13.2798C13.16 13.6798 12.96 14.1698 12.96 14.7498C12.96 15.3298 13.16 15.8198 13.56 16.2198C13.96 16.6198 14.44 16.8198 15 16.8198C15.56 16.8198 16.04 16.6198 16.44 16.2198C16.84 15.8198 17.04 15.3298 17.04 14.7498C17.04 14.1698 16.84 13.6798 16.44 13.2798C16.04 12.8798 15.56 12.6798 15 12.6798ZM15 13.8198C15.24 13.8198 15.46 13.9098 15.66 14.0898C15.86 14.2698 15.96 14.4898 15.96 14.7498C15.96 15.0098 15.86 15.2298 15.66 15.4098C15.46 15.5898 15.24 15.6798 15 15.6798C14.76 15.6798 14.54 15.5898 14.34 15.4098C14.14 15.2298 14.04 15.0098 14.04 14.7498C14.04 14.4898 14.14 14.2698 14.34 14.0898C14.54 13.9098 14.76 13.8198 15 13.8198ZM2.45996 5.71982V13.2198C2.45996 13.3798 2.50996 13.5198 2.60996 13.6398C2.70996 13.7598 2.83996 13.8198 2.99996 13.8198C3.15996 13.8198 3.28996 13.7598 3.38996 13.6398C3.48996 13.5198 3.53996 13.3998 3.53996 13.2798V5.71982C3.53996 5.59982 3.48996 5.47982 3.38996 5.35982C3.28996 5.23982 3.15996 5.17982 2.99996 5.17982C2.83996 5.17982 2.70996 5.23982 2.60996 5.35982C2.50996 5.47982 2.45996 5.59982 2.45996 5.71982ZM8.45996 5.71982V13.2198C8.45996 13.3798 8.50996 13.5198 8.60996 13.6398C8.70996 13.7598 8.83996 13.8198 8.99996 13.8198C9.15996 13.8198 9.28996 13.7598 9.38996 13.6398C9.48996 13.5198 9.53996 13.3998 9.53996 13.2798V5.71982C9.53996 5.59982 9.48996 5.47982 9.38996 5.35982C9.28996 5.23982 9.15996 5.17982 8.99996 5.17982C8.83996 5.17982 8.70996 5.23982 8.60996 5.35982C8.50996 5.47982 8.45996 5.59982 8.45996 5.71982ZM14.46 5.71982V8.71982C14.46 8.79982 14.44 8.85982 14.4 8.89982C14.36 8.93982 14.32 8.95982 14.28 8.95982H2.99996C2.83996 8.95982 2.70996 9.00982 2.60996 9.10982C2.50996 9.20982 2.45996 9.33982 2.45996 9.49982C2.45996 9.65982 2.50996 9.78982 2.60996 9.88982C2.70996 9.98982 2.83996 10.0398 2.99996 10.0398H14.28C14.64 10.0398 14.94 9.91982 15.18 9.67982C15.42 9.43982 15.54 9.11982 15.54 8.71982V5.77982C15.54 5.61982 15.49 5.47982 15.39 5.35982C15.29 5.23982 15.16 5.17982 15 5.17982C14.84 5.17982 14.71 5.23982 14.61 5.35982C14.51 5.47982 14.46 5.59982 14.46 5.71982Z" fill="#050B20"/>
</g>
</svg>
