<svg xmlns:dc="http://purl.org/dc/elements/1.1/" xmlns:cc="http://creativecommons.org/ns#"
    xmlns:rdf="http://www.w3.org/1999/02/22-rdf-syntax-ns#" xmlns:svg="http://www.w3.org/2000/svg"
    xmlns="http://www.w3.org/2000/svg" version="1.1" viewBox="0 0 26.458333 33.0729175" x="0px" y="0px">
    <g style="" display="inline">
        <path
            d="m 8.8019852,1.3229165 c -0.9806165,0 -1.7824998,0.8018873 -1.7824998,1.7824999 V 23.350894 c 0,0.980614 0.8018833,1.784522 1.7824998,1.784523 h 8.8523408 c 0.980614,0 1.784522,-0.803908 1.784522,-1.784523 V 3.1054164 c 0,-0.9806126 -0.803908,-1.7824999 -1.784522,-1.7824999 z m 0,0.5176634 h 1.2572538 v 0.6445506 c 0,0.2017565 0.170027,0.371565 0.369037,0.371565 h 5.59976 c 0.199013,0 0.367015,-0.1698134 0.367015,-0.371565 V 1.8405799 h 1.259275 c 0.699279,0 1.26686,0.565559 1.26686,1.2648365 V 23.350894 c 0,0.69928 -0.56758,1.26686 -1.26686,1.26686 H 8.8019852 c -0.6992823,0 -1.2668605,-0.56758 -1.2668605,-1.26686 V 3.1054164 c 0,-0.6992775 0.5675782,-1.2648365 1.2668605,-1.2648365 z"
            style="color:#000000;font-style:normal;font-variant:normal;font-weight:normal;font-stretch:normal;font-size:medium;line-height:normal;font-family:sans-serif;font-variant-ligatures:normal;font-variant-position:normal;font-variant-caps:normal;font-variant-numeric:normal;font-variant-alternates:normal;font-variant-east-asian:normal;font-feature-settings:normal;font-variation-settings:normal;text-indent:0;text-align:start;text-decoration:none;text-decoration-line:none;text-decoration-style:solid;text-decoration-color:#000000;letter-spacing:normal;word-spacing:normal;text-transform:none;writing-mode:lr-tb;direction:ltr;text-orientation:mixed;dominant-baseline:auto;baseline-shift:baseline;text-anchor:start;white-space:normal;shape-padding:0;shape-margin:0;inline-size:0;clip-rule:nonzero;display:inline;overflow:visible;visibility:visible;opacity:1;isolation:auto;mix-blend-mode:normal;color-interpolation:sRGB;color-interpolation-filters:linearRGB;solid-color:#000000;solid-opacity:1;vector-effect:none;fill:#000000;fill-opacity:1;fill-rule:nonzero;stroke:none;stroke-width:0.529164;stroke-linecap:round;stroke-linejoin:round;stroke-miterlimit:4;stroke-dasharray:none;stroke-dashoffset:0;stroke-opacity:1;color-rendering:auto;image-rendering:auto;shape-rendering:auto;text-rendering:auto;enable-background:accumulate;stop-color:#000000;stop-opacity:1" />
    </g>
</svg>