<svg class="svg-icon" style="width: 1em; height: 1em;vertical-align: middle;fill: currentColor;overflow: hidden;" viewBox="0 0 1024 1024" version="1.1" xmlns="http://www.w3.org/2000/svg"><path d="M810.666667 810.666667H213.333333V213.333333h597.333334m0-85.333333H213.333333a85.333333 85.333333 0 0 0-85.333333 85.333333v597.333334a85.333333 85.333333 0 0 0 85.333333 85.333333h597.333334a85.333333 85.333333 0 0 0 85.333333-85.333333V213.333333a85.333333 85.333333 0 0 0-85.333333-85.333333m-106.666667 565.333333c0-64-128-96-192-96s-192 32-192 96V725.333333h384M512 522.666667A96 96 0 0 0 608 426.666667 96 96 0 0 0 512 330.666667 96 96 0 0 0 416 426.666667 96 96 0 0 0 512 522.666667z" fill="" /></svg>