<svg width="25" height="25" viewBox="0 0 25 25" fill="none" xmlns="http://www.w3.org/2000/svg">
<path id="Vector" d="M3.00049 21.5625H10.288L10.243 21.4825C10.0339 21.1204 9.91193 20.7145 9.88676 20.2971C9.8616 19.8797 9.93391 19.4621 10.098 19.0775H3.24049V6.4475H21.458V11.5675C21.5555 11.6225 21.653 11.675 21.7455 11.735L21.918 11.6725C22.5759 11.4314 23.3022 11.4583 23.9405 11.7475V2.75C23.9405 2.15326 23.7034 1.58097 23.2815 1.15901C22.8595 0.737053 22.2872 0.5 21.6905 0.5H3.00049C2.40375 0.5 1.83145 0.737053 1.4095 1.15901C0.987541 1.58097 0.750488 2.15326 0.750488 2.75V19.3175C0.751812 19.9134 0.98945 20.4844 1.41126 20.9053C1.83308 21.3261 2.40462 21.5625 3.00049 21.5625ZM9.68299 2.7275C9.8689 2.7275 10.0506 2.78263 10.2052 2.88592C10.3598 2.98921 10.4803 3.13602 10.5514 3.30778C10.6226 3.47954 10.6412 3.66854 10.6049 3.85088C10.5687 4.03323 10.4791 4.20072 10.3477 4.33218C10.2162 4.46364 10.0487 4.55317 9.86637 4.58944C9.68403 4.62571 9.49503 4.60709 9.32327 4.53595C9.1515 4.4648 9.0047 4.34432 8.90141 4.18974C8.79812 4.03515 8.74299 3.85341 8.74299 3.6675C8.74299 3.4182 8.84202 3.1791 9.01831 3.00282C9.19459 2.82654 9.43369 2.7275 9.68299 2.7275ZM6.89549 2.7275C7.0814 2.7275 7.26314 2.78263 7.41772 2.88592C7.57231 2.98921 7.69279 3.13602 7.76394 3.30778C7.83508 3.47954 7.8537 3.66854 7.81743 3.85088C7.78116 4.03323 7.69163 4.20072 7.56017 4.33218C7.42871 4.46364 7.26122 4.55317 7.07887 4.58944C6.89653 4.62571 6.70753 4.60709 6.53577 4.53595C6.364 4.4648 6.2172 4.34432 6.11391 4.18974C6.01062 4.03515 5.95549 3.85341 5.95549 3.6675C5.95549 3.4182 6.05452 3.1791 6.23081 3.00282C6.40709 2.82654 6.64618 2.7275 6.89549 2.7275ZM4.10799 2.7275C4.2939 2.7275 4.47564 2.78263 4.63022 2.88592C4.78481 2.98921 4.90529 3.13602 4.97644 3.30778C5.04758 3.47954 5.0662 3.66854 5.02993 3.85088C4.99366 4.03323 4.90413 4.20072 4.77267 4.33218C4.64121 4.46364 4.47372 4.55317 4.29137 4.58944C4.10903 4.62571 3.92003 4.60709 3.74827 4.53595C3.5765 4.4648 3.4297 4.34432 3.32641 4.18974C3.22312 4.03515 3.16799 3.85341 3.16799 3.6675C3.16799 3.4182 3.26702 3.1791 3.44331 3.00282C3.61959 2.82654 3.85868 2.7275 4.10799 2.7275ZM24.193 14.6425L23.668 13.735C23.5562 13.5411 23.3795 13.3929 23.1691 13.3165C22.9587 13.2401 22.7281 13.2405 22.518 13.3175L21.4555 13.705C20.9253 13.2347 20.3053 12.8767 19.633 12.6525L19.438 11.54C19.4002 11.3188 19.2853 11.1181 19.1137 10.9735C18.9421 10.8289 18.7249 10.7497 18.5005 10.75H17.4505C17.2265 10.7496 17.0095 10.8285 16.838 10.9726C16.6664 11.1167 16.5513 11.3168 16.513 11.5375L16.318 12.65C15.6455 12.8738 15.0255 13.2319 14.4955 13.7025L13.433 13.315C13.2235 13.2393 12.994 13.2396 12.7847 13.3159C12.5754 13.3923 12.3996 13.5397 12.288 13.7325L11.763 14.64C11.6508 14.8337 11.6105 15.0608 11.6494 15.2813C11.6883 15.5017 11.8038 15.7014 11.9755 15.845L12.8405 16.57C12.6991 17.2654 12.6991 17.9821 12.8405 18.6775L11.9755 19.4025C11.8038 19.5461 11.6883 19.7458 11.6494 19.9662C11.6105 20.1867 11.6508 20.4138 11.763 20.6075L12.288 21.5175C12.3998 21.7114 12.5764 21.8596 12.7868 21.936C12.9972 22.0124 13.2278 22.012 13.438 21.935L14.5005 21.5475C15.0307 22.0178 15.6507 22.3758 16.323 22.6L16.518 23.7125C16.5562 23.9328 16.671 24.1326 16.842 24.2766C17.013 24.4207 17.2294 24.4998 17.453 24.5H18.503C18.727 24.5004 18.944 24.4215 19.1155 24.2774C19.2871 24.1333 19.4022 23.9332 19.4405 23.7125L19.6355 22.6C20.3078 22.3758 20.9278 22.0178 21.458 21.5475L22.5205 21.935C22.7306 22.012 22.9613 22.0124 23.1716 21.936C23.382 21.8596 23.5587 21.7114 23.6705 21.5175L24.1955 20.61C24.3077 20.4163 24.3479 20.1892 24.3091 19.9687C24.2702 19.7483 24.1547 19.5486 23.983 19.405L23.118 18.68C23.2591 17.9846 23.2591 17.2679 23.118 16.5725L23.983 15.8475C24.1543 15.7035 24.2693 15.5037 24.3077 15.2833C24.3461 15.0628 24.3055 14.8359 24.193 14.6425ZM17.9755 19.61C17.5829 19.61 17.1991 19.4936 16.8727 19.2755C16.5463 19.0574 16.2918 18.7473 16.1416 18.3846C15.9913 18.0219 15.952 17.6228 16.0286 17.2377C16.1052 16.8527 16.2943 16.499 16.5719 16.2214C16.8495 15.9438 17.2032 15.7547 17.5882 15.6781C17.9733 15.6016 18.3724 15.6409 18.7351 15.7911C19.0978 15.9413 19.4078 16.1958 19.626 16.5222C19.8441 16.8486 19.9605 17.2324 19.9605 17.625C19.9605 18.1515 19.7514 18.6563 19.3791 19.0286C19.0068 19.4009 18.5019 19.61 17.9755 19.61Z" fill="black"/>
</svg>
