<svg width="24" height="24" viewBox="0 0 24 24" fill="none" xmlns="http://www.w3.org/2000/svg">
<path d="M3 4H21" stroke="#222222" stroke-width="2" stroke-linecap="round"/>
<path fill-rule="evenodd" clip-rule="evenodd" d="M19 4H5V15.8C5 16.9201 5 17.4802 5.21799 17.908C5.40973 18.2843 5.71569 18.5903 6.09202 18.782C6.51984 19 7.0799 19 8.2 19H15.8C16.9201 19 17.4802 19 17.908 18.782C18.2843 18.5903 18.5903 18.2843 18.782 17.908C19 17.4802 19 16.9201 19 15.8V4ZM13 9V12.5858L14.2929 11.2929C14.6834 10.9024 15.3166 10.9024 15.7071 11.2929C16.0976 11.6834 16.0976 12.3166 15.7071 12.7071L12.8132 15.601C12.7947 15.6195 12.7758 15.6372 12.7564 15.6541C12.5731 15.866 12.3022 16 12 16C11.6978 16 11.4269 15.866 11.2436 15.6541C11.2242 15.6372 11.2053 15.6195 11.1868 15.601L8.29289 12.7071C7.90237 12.3166 7.90237 11.6834 8.29289 11.2929C8.68342 10.9024 9.31658 10.9024 9.70711 11.2929L11 12.5858V9C11 8.44772 11.4477 8 12 8C12.5523 8 13 8.44772 13 9Z" fill="#222222"/>
</svg>
