<svg xmlns="http://www.w3.org/2000/svg" xmlns:xlink="http://www.w3.org/1999/xlink" version="1.1" x="0px" y="0px"
    viewBox="0 0 100 125" enable-background="new 0 0 100 100" xml:space="preserve">
    <path
        d="M25.5,73.5h22v-8h-22V73.5z M51.5,73.5h10v-8h-10V73.5z M88.828,29.281l-12-18C76.086,10.168,74.838,9.5,73.5,9.5h-48  c-1.338,0-2.586,0.668-3.328,1.781l-12,18C9.734,29.938,9.5,30.71,9.5,31.5v56c0,2.209,1.791,4,4,4h72c2.209,0,4-1.791,4-4v-56  C89.5,30.71,89.266,29.938,88.828,29.281z M71.36,17.5l6.668,10H61.08l-1.111-10H71.36z M47.08,17.5h4.84l1.111,10h-7.063  L47.08,17.5z M45.5,35.5h8v8h-8V35.5z M27.641,17.5h11.391l-1.111,10H20.974L27.641,17.5z M81.5,83.5h-64v-48h20v16h24v-16h20V83.5z  " />
</svg>