<svg xmlns="http://www.w3.org/2000/svg" viewBox="0 0 96 120" x="0px" y="0px">
    <g data-name="1">
        <path
            d="M6.58,65.81V27.53A9.4,9.4,0,0,1,16,18.14h1.79V13.48a2.5,2.5,0,0,1,5,0v4.66h17V13.48a2.5,2.5,0,1,1,5,0v4.66h17V13.48a2.5,2.5,0,1,1,5,0v4.66h4.52a9.4,9.4,0,0,1,9.39,9.39v8.59a2.5,2.5,0,0,1-5,0V27.53a4.4,4.4,0,0,0-4.39-4.39H66.76v5.08a2.5,2.5,0,1,1-5,0V23.14h-17v5.08a2.5,2.5,0,0,1-5,0V23.14h-17v5.08a2.5,2.5,0,0,1-5,0V23.14H16a4.39,4.39,0,0,0-4.38,4.39V65.81A4.38,4.38,0,0,0,16,70.19H38.78a2.5,2.5,0,0,1,0,5H16A9.39,9.39,0,0,1,6.58,65.81Zm82.84-.24A19.45,19.45,0,1,1,70,46.12,19.47,19.47,0,0,1,89.42,65.57Zm-5,0A14.45,14.45,0,1,0,70,80,14.46,14.46,0,0,0,84.42,65.57ZM77.54,58.4a2.49,2.49,0,0,0-3.5.47L69.59,64.7l-1.65-2.26a2.5,2.5,0,1,0-4,2.94l3.62,5a2.49,2.49,0,0,0,2,1h0a2.51,2.51,0,0,0,2-1L78,61.9A2.49,2.49,0,0,0,77.54,58.4ZM26.73,38.91H23.6a2.5,2.5,0,1,0,0,5h3.13a2.5,2.5,0,1,0,0-5Zm0,17H23.6a2.5,2.5,0,1,0,0,5h3.13a2.5,2.5,0,1,0,0-5Zm14.9-17H38.5a2.5,2.5,0,0,0,0,5h3.13a2.5,2.5,0,0,0,0-5Zm12.73,0a2.5,2.5,0,0,0,0,5H57.5a2.5,2.5,0,0,0,0-5Zm-12.73,17H38.5a2.5,2.5,0,0,0,0,5h3.13a2.5,2.5,0,0,0,0-5Z" 
            stroke="black" stroke-width="2"
            />
    </g>
</svg>