<svg width="110" height="135" viewBox="0 0 110 135" fill="none" xmlns="http://www.w3.org/2000/svg">
<path d="M68.539 92.1294C68.0195 91.188 67.0195 90.5982 65.9374 90.5982H38.2964C37.2183 90.5982 36.2261 91.188 35.7066 92.1294L86.9495 89.4497M68.539 92.1294L68.9374 92.8481M68.539 92.1294L68.9763 91.887L68.9768 91.8878L68.539 92.1294ZM68.9374 92.8481H84.9494C86.1292 92.8481 86.719 92.0591 86.9182 91.7192C87.1214 91.3794 87.5198 90.4809 86.9495 89.4497M68.9374 92.8481L69.3747 92.6057L69.2319 92.3481H68.9374V92.8481ZM86.9495 89.4497L86.5119 89.6917C86.512 89.6919 86.5121 89.6921 86.5122 89.6922L86.5129 89.6934L86.9495 89.4497ZM18.7996 97.3221L18.7995 97.352H19.3008H84.9418C87.3688 97.352 89.5641 96.0982 90.7948 94.0037C92.0242 91.9114 92.0673 89.3949 90.891 87.27L90.8908 87.2697L85.7701 78.032C84.9633 76.572 83.4364 75.6722 81.7738 75.6722H23.7501V36.2227H54.1988C55.5766 36.2227 56.6988 35.1004 56.6988 33.7227C56.6988 32.345 55.5765 31.2227 54.1988 31.2227H23.4688C20.8646 31.2227 18.75 33.3372 18.75 35.9415V75.9415C18.75 76.4208 18.832 76.8801 18.964 77.3069C18.7809 77.5256 18.6155 77.7633 18.4734 78.0186L18.4726 78.0199L13.3633 87.258C12.1879 89.3816 12.2216 91.9018 13.4477 93.9915L13.4478 93.9918C14.593 95.9411 16.574 97.1622 18.7996 97.3221ZM81.4762 80.6685H81.7698V80.1685L81.3332 80.4122L81.4762 80.6685ZM17.7627 91.478C17.5997 91.2 17.2936 90.5064 17.7376 89.7034L17.914 89.3845L17.904 89.3738L22.7623 80.6685L17.7627 91.478ZM17.3313 91.731L17.7627 91.4781L17.3313 91.731ZM35.3081 92.3599H35.0113L34.8692 92.6204L35.3081 92.8599V92.3599ZM63.8494 50.7699L63.8419 50.7713L63.8345 50.773C57.9739 52.0519 53.2654 54.7498 50.0209 58.5568C46.7746 62.3658 45.0191 67.2561 45.0191 72.8705C45.0191 74.2482 46.1413 75.3705 47.5191 75.3705C48.8968 75.3705 50.0191 74.2482 50.0191 72.8705C50.0191 68.485 51.4097 64.7 53.9411 61.7585C56.4731 58.8162 60.1708 56.6901 64.8289 55.6697C69.0919 54.8819 73.427 54.882 77.6308 55.6579C82.3193 56.6904 86.0318 58.8226 88.5711 61.7674C91.1096 64.7113 92.5001 68.4952 92.5001 72.8787C92.5001 74.2564 93.6224 75.3787 95.0001 75.3787C96.3778 75.3787 97.5001 74.2565 97.5001 72.8787C97.5001 67.2663 95.7445 62.3759 92.4906 58.5638C89.2387 54.7539 84.5154 52.0502 78.626 50.7613L78.6185 50.7597L78.6109 50.7582C76.4945 50.3628 74.3624 50.1393 72.2225 50.0885C79.3524 49.5938 84.9921 43.6339 84.9921 36.3917C84.9921 28.827 78.8268 22.6617 71.2621 22.6617C63.6968 22.6617 57.5321 28.827 57.5321 36.3917C57.5321 43.6371 63.1878 49.5987 70.3119 50.0891C68.1605 50.1414 66.0036 50.3681 63.8494 50.7699ZM71.2621 27.6487C76.0757 27.6487 79.9926 31.5655 79.9926 36.3792C79.9926 41.193 76.0758 45.1097 71.2621 45.1097C66.4484 45.1097 62.5316 41.193 62.5316 36.3792C62.5316 31.5655 66.4483 27.6487 71.2621 27.6487Z" fill="black" stroke="black"/>
</svg>
