<svg xmlns="http://www.w3.org/2000/svg" version="1.1" viewBox="-5.0 -10.0 110.0 135.0">
    <path
        d="m35.559 65.625h-19.934c-5.1797 0-9.375-4.1992-9.375-9.375v-40.625c0-5.1758 4.1953-9.375 9.375-9.375h68.75c5.1797 0 9.375 4.1992 9.375 9.375v40.625c0 5.1758-4.1953 9.375-9.375 9.375h-19.934l16.242 23.207c0.99219 1.4141 0.64844 3.3633-0.76953 4.3555-1.4102 0.98828-3.3594 0.64453-4.3477-0.77344l-8.1797-11.676-14.262 7.1328v2.7539c0 1.7266-1.3984 3.125-3.125 3.125s-3.125-1.3984-3.125-3.125v-2.7539l-14.262-7.1328-8.1797 11.676c-0.98828 1.418-2.9375 1.7617-4.3477 0.77344-1.418-0.99219-1.7617-2.9414-0.76953-4.3555zm21.25 0h-3.6836v15.258l10.641-5.3203zm-41.184-6.25h68.75c1.7266 0 3.125-1.4023 3.125-3.125v-40.625c0-1.7227-1.3984-3.125-3.125-3.125h-68.75c-1.7266 0-3.125 1.4023-3.125 3.125v40.625c0 1.7227 1.3984 3.125 3.125 3.125zm56.25-6.25h-43.75c-1.7266 0-3.125-1.3984-3.125-3.125 0-1.7227 1.3984-3.125 3.125-3.125v-15.625c0-1.7227 1.3984-3.125 3.125-3.125s3.125 1.4023 3.125 3.125v15.625h6.25v-6.25c0-1.7266 1.3984-3.125 3.125-3.125s3.125 1.3984 3.125 3.125v6.25h6.25v-12.5c0-1.7266 1.3984-3.125 3.125-3.125s3.125 1.3984 3.125 3.125v12.5h6.25v-21.875c0-1.7266 1.3984-3.125 3.125-3.125s3.125 1.3984 3.125 3.125v21.875c1.7266 0 3.125 1.4023 3.125 3.125 0 1.7266-1.3984 3.125-3.125 3.125zm-25 12.5h-3.6836l-6.957 9.9375 10.641 5.3203z"
        fill-rule="evenodd" />
</svg>