<svg xmlns="http://www.w3.org/2000/svg" version="1.1" viewBox="-5.0 -10.0 110.0 135.0">
    <path
        d="m14.301 86.852h65.641c2.25 0 4.2812-1.1602 5.4219-3.1016s1.1797-4.2695 0.089844-6.2383l-5.1211-9.2383c-0.71875-1.3008-2.0781-2.1016-3.5586-2.1016h-58.305c-0.12109 0-0.21875-0.10156-0.21875-0.21875v-40.012c0-0.12109 0.10156-0.21875 0.21875-0.21875h30.73c1.1016 0 2-0.89844 2-2 0-1.1016-0.89844-2-2-2h-30.73c-2.3281 0-4.2188 1.8906-4.2188 4.2188v40c0 0.51953 0.10938 1.0195 0.28125 1.4805-0.23828 0.25-0.44922 0.53125-0.62109 0.83984l-5.1094 9.2383c-1.0898 1.9688-1.0586 4.3008 0.078125 6.2383 1.1406 1.9414 3.1719 3.1016 5.4219 3.1016zm-2.0117-7.4023 5.1797-9.2812h59.301l5.1797 9.2812c0.57031 1.0312 0.17188 1.9297-0.03125 2.2695-0.19922 0.33984-0.78906 1.1289-1.9688 1.1289h-16.012l-0.39844-0.71875c-0.51953-0.94141-1.5195-1.5312-2.6016-1.5312h-27.641c-1.0781 0-2.0703 0.58984-2.5898 1.5312l-0.39844 0.73047h-16.008c-1.1797 0-1.7695-0.78906-1.9688-1.1289-0.19922-0.33984-0.60156-1.2383-0.03125-2.2695zm53.973-39.828c7.3008 0 13.23-5.9414 13.23-13.23s-5.9414-13.23-13.23-13.23c-7.2891 0-13.23 5.9414-13.23 13.23s5.9414 13.23 13.23 13.23zm0-22.473c5.0898 0 9.2305 4.1406 9.2305 9.2305s-4.1406 9.2305-9.2305 9.2305c-5.0898 0-9.2305-4.1406-9.2305-9.2305s4.1406-9.2305 9.2305-9.2305zm25.738 45.73c0 1.1016-0.89844 2-2 2s-2-0.89844-2-2c0-8.9883-5.7109-15.609-15.27-17.711-4.2695-0.78906-8.6719-0.78906-13 0.011719-9.5 2.0781-15.211 8.6992-15.211 17.691 0 1.1016-0.89844 2-2 2-1.1016 0-2-0.89844-2-2 0-11.012 6.8789-19.09 18.422-21.609 4.8789-0.91016 9.7695-0.91016 14.578-0.011719 11.602 2.5391 18.48 10.621 18.48 21.629z" />
</svg>