<svg xmlns="http://www.w3.org/2000/svg" data-name="Layer 1" viewBox="0 0 100 125" x="0px" y="0px"><title>Artboard 24</title><path d="M11.85,86.25H41l-.18-.32a10.78,10.78,0,0,1-.58-9.62H12.81V25.79H85.68V46.27c.39.22.78.43,1.15.67l.69-.25a10.69,10.69,0,0,1,8.09.3V11a9,9,0,0,0-9-9H11.85a9,9,0,0,0-9,9V77.27A9,9,0,0,0,11.85,86.25ZM38.58,10.91a3.76,3.76,0,1,1-3.76,3.76A3.76,3.76,0,0,1,38.58,10.91Zm-11.15,0a3.76,3.76,0,1,1-3.76,3.76A3.76,3.76,0,0,1,27.43,10.91Zm-11.15,0a3.76,3.76,0,1,1-3.76,3.76A3.76,3.76,0,0,1,16.28,10.91ZM96.62,58.57l-2.1-3.63a3.8,3.8,0,0,0-4.6-1.67l-4.25,1.55a21,21,0,0,0-7.29-4.21l-.78-4.45A3.8,3.8,0,0,0,73.85,43h-4.2a3.8,3.8,0,0,0-3.75,3.15l-.78,4.45a20.94,20.94,0,0,0-7.29,4.21l-4.25-1.55A3.8,3.8,0,0,0,49,54.93l-2.1,3.63a3.8,3.8,0,0,0,.85,4.82l3.46,2.9a21.16,21.16,0,0,0,0,8.43l-3.46,2.9a3.8,3.8,0,0,0-.85,4.82L49,86.07a3.8,3.8,0,0,0,4.6,1.67l4.25-1.55a21,21,0,0,0,7.29,4.21l.78,4.45A3.8,3.8,0,0,0,69.66,98h4.2a3.8,3.8,0,0,0,3.75-3.15l.78-4.45a21,21,0,0,0,7.29-4.21l4.25,1.55a3.8,3.8,0,0,0,4.6-1.67l2.1-3.63a3.8,3.8,0,0,0-.85-4.82l-3.46-2.9a21.19,21.19,0,0,0,0-8.43l3.46-2.9A3.8,3.8,0,0,0,96.62,58.57ZM71.75,78.44a7.94,7.94,0,1,1,7.94-7.94A7.94,7.94,0,0,1,71.75,78.44Z"/><text x="0" y="115" fill="#000000" font-size="5px" font-weight="bold" font-family="'Helvetica Neue', Helvetica, Arial-Unicode, Arial, Sans-serif">Created by Gregor Cresnar</text><text x="0" y="120" fill="#000000" font-size="5px" font-weight="bold" font-family="'Helvetica Neue', Helvetica, Arial-Unicode, Arial, Sans-serif">from the Noun Project</text></svg>